# Blender v2.79 (sub 0) OBJ File: 'fleche.blend'
# www.blender.org
mtllib flecheCorrection.mtl
o Cube.001
v 0.000000 0.000000 -2.414213
v 1.414213 0.000000 -1.000000
v 1.414213 0.500000 -0.999999
v -1.414213 0.000000 -1.000000
v 0.000001 0.500000 -2.414213
v -1.414213 0.500000 -1.000000
v -0.497517 0.000000 -1.000000
v 0.497518 0.000000 -1.000000
v 0.497518 0.500000 -0.999999
v -0.497517 0.500000 -1.000000
v 0.500000 0.000000 0.038596
v -0.500000 0.000000 0.038596
v 0.499999 0.500000 0.038596
v -0.500000 0.500000 0.038596
vn -0.0000 -0.0000 1.0000
vn 0.7071 0.0000 -0.7071
vn -0.7071 0.0000 -0.7071
vn 0.0000 1.0000 0.0000
vn 0.0000 -1.0000 0.0000
vn 1.0000 0.0000 -0.0024
vn -1.0000 -0.0000 -0.0024
usemtl Material
s off
f 9//1 8//1 2//1 3//1
f 1//2 5//2 3//2 2//2
f 5//3 1//3 4//3 6//3
f 3//4 5//4 6//4 10//4 9//4
f 2//5 8//5 7//5 4//5 1//5
f 6//1 4//1 7//1 10//1
f 8//5 11//5 12//5 7//5
f 9//4 10//4 14//4 13//4
f 8//6 9//6 13//6 11//6
f 11//1 13//1 14//1 12//1
f 12//7 14//7 10//7 7//7
